<svg xmlns="http://www.w3.org/2000/svg" width="800" height="800" viewBox="0 0 800 800">
<g>
<path d="M 495.50 582.53 C476.68,585.59 460.03,582.98 442.50,574.22 C431.83,568.90 425.23,564.02 416.98,555.38 C405.88,543.75 403.71,538.03 408.65,533.45 C411.21,531.08 411.76,531.00 426.29,531.00 L 441.29 531.00 L 445.91 535.32 C454.63,543.48 468.95,548.97 481.54,548.99 C515.87,549.05 543.40,516.04 536.59,483.00 C532.15,461.47 514.60,443.29 494.20,439.09 C486.73,437.55 474.43,437.74 467.70,439.49 C460.93,441.25 450.95,446.11 445.85,450.13 L 442.20 453.01 L 434.25 439.75 C429.87,432.46 417.16,411.88 406.01,394.00 C394.86,376.12 384.59,359.64 383.20,357.37 C380.79,353.45 380.38,353.22 374.83,352.72 C371.39,352.41 366.35,350.95 362.53,349.16 C331.82,334.79 330.51,293.02 360.26,276.88 C366.40,273.55 366.69,273.50 379.00,273.50 L 391.50 273.50 L 398.18 277.26 C406.25,281.80 413.24,289.47 416.19,297.00 C420.43,307.82 419.46,323.29 413.95,332.76 L 412.06 336.02 L 424.78 356.01 C431.78,367.00 441.19,381.96 445.70,389.25 C450.21,396.54 454.48,403.31 455.20,404.30 C456.44,406.02 456.95,406.03 466.50,404.45 C486.03,401.23 503.81,403.84 521.50,412.54 C545.17,424.19 562.70,445.19 569.04,469.50 C573.41,486.24 572.53,509.19 566.97,523.85 C554.88,555.66 528.73,577.13 495.50,582.53 ZM 284.00 582.54 C265.74,585.32 249.17,583.05 233.50,575.63 C208.74,563.91 190.87,543.77 183.22,518.97 C180.51,510.21 178.75,494.98 179.52,487.00 C181.71,464.20 191.59,443.25 207.14,428.44 C224.26,412.11 242.65,404.28 266.20,403.26 L 277.90 402.76 L 278.56 405.39 C279.10,407.54 277.60,410.76 270.36,422.91 L 261.50 437.80 L 255.50 439.47 C246.26,442.05 238.13,446.87 231.00,454.00 C223.39,461.61 218.75,469.81 215.91,480.69 C208.42,509.27 227.80,539.69 258.46,547.48 C266.55,549.54 275.16,549.39 284.41,547.02 C295.26,544.25 301.33,540.70 310.08,532.02 C318.53,523.64 324.00,514.13 326.05,504.27 C327.23,498.56 326.87,481.87 325.45,477.25 L 324.77 475.00 L 448.84 475.00 L 450.93 471.61 C454.25,466.25 461.51,460.97 469.30,458.26 C483.61,453.28 497.93,456.63 508.47,467.42 C515.92,475.05 518.48,481.73 518.48,493.50 C518.48,501.31 518.10,503.33 515.59,508.78 C508.33,524.56 490.05,533.69 473.97,529.57 C464.52,527.15 461.06,525.17 454.26,518.30 L 448.02 512.00 L 360.14 512.00 L 358.48 517.75 C351.83,540.73 334.68,561.76 313.82,572.54 C302.15,578.56 295.53,580.79 284.00,582.54 Z" fill="rgb(58,70,78)"/>
<path d="M 284.21 528.00 C277.33,530.60 264.63,530.67 257.33,528.15 C240.78,522.43 230.53,504.82 233.26,486.79 C235.75,470.33 248.21,458.48 265.91,455.74 L 272.68 454.69 L 292.59 420.71 C303.54,402.01 312.91,385.86 313.42,384.82 C314.16,383.30 313.54,382.08 310.33,378.71 C299.03,366.86 289.91,350.55 285.80,334.88 C282.68,322.96 282.71,301.18 285.85,289.00 C291.65,266.59 307.25,244.75 326.06,232.75 C343.55,221.58 357.71,217.48 378.50,217.55 C395.50,217.61 406.04,219.89 419.50,226.44 C444.72,238.71 463.98,261.94 470.93,288.47 C472.07,292.82 473.00,298.60 473.00,301.32 C473.00,305.63 472.57,306.67 469.68,309.38 C465.43,313.38 450.48,321.82 446.25,322.61 C444.05,323.02 442.18,322.69 440.50,321.59 C438.25,320.12 438.00,319.29 438.00,313.37 C438.00,296.65 427.49,275.21 414.73,265.90 C401.70,256.39 385.77,251.87 372.08,253.81 C367.72,254.43 361.53,255.85 358.32,256.97 C350.73,259.63 340.07,266.96 334.44,273.38 C329.14,279.45 322.60,292.37 321.08,299.80 C318.36,313.13 320.84,329.67 327.26,341.00 C333.95,352.80 347.92,364.61 359.75,368.45 C365.05,370.18 365.74,370.82 364.10,372.55 C363.60,373.07 358.27,381.83 352.24,392.00 C346.22,402.17 332.85,424.44 322.54,441.48 L 303.79 472.46 L 306.14 479.48 C308.76,487.28 309.16,496.71 307.16,503.68 C304.33,513.55 294.29,524.20 284.21,528.00 ZM 472.11 377.95 C468.05,379.63 464.11,381.00 463.37,381.00 C462.12,381.00 459.97,377.93 446.83,357.50 C446.10,356.36 445.43,355.35 444.83,354.44 C442.26,350.54 440.92,348.51 441.32,346.93 C441.86,344.83 445.44,343.51 453.26,339.69 C473.68,329.70 487.48,319.91 506.39,302.02 C513.12,295.66 527.97,278.63 528.03,277.21 C528.05,276.82 522.13,270.85 514.87,263.95 C502.89,252.53 501.75,251.15 502.35,248.72 C503.21,245.30 504.53,244.65 517.64,241.14 C523.61,239.54 538.62,235.44 551.00,232.03 C589.74,221.37 611.23,216.00 615.17,216.00 C618.39,216.00 619.06,216.38 619.59,218.51 C619.94,219.89 620.02,222.26 619.76,223.76 C618.04,233.96 595.66,331.70 594.81,332.72 C592.41,335.63 588.51,334.13 581.91,327.75 C578.34,324.31 572.44,318.65 568.79,315.17 L 562.16 308.83 L 545.83 325.29 C520.01,351.30 497.16,367.63 472.11,377.95 Z" fill="rgb(226,48,56)"/>
<path d="M 0.00 400.00 L 0.00 0.00 L 400.00 0.00 L 800.00 0.00 L 800.00 400.00 L 800.00 800.00 L 400.00 800.00 L 0.00 800.00 L 0.00 400.00 ZM 284.00 582.54 C295.53,580.79 302.15,578.56 313.82,572.54 C334.68,561.76 351.83,540.73 358.48,517.75 L 360.14 512.00 L 404.08 512.00 L 448.02 512.00 L 454.26 518.30 C461.06,525.17 464.52,527.15 473.97,529.57 C490.05,533.69 508.33,524.56 515.59,508.78 C518.10,503.33 518.48,501.31 518.48,493.50 C518.48,481.73 515.92,475.05 508.47,467.42 C497.93,456.63 483.61,453.28 469.30,458.26 C461.51,460.97 454.25,466.25 450.93,471.61 L 448.84 475.00 L 386.80 475.00 L 324.77 475.00 L 325.45 477.25 C326.87,481.87 327.23,498.56 326.05,504.27 C324.00,514.13 318.53,523.64 310.08,532.02 C301.33,540.70 295.26,544.25 284.41,547.02 C275.16,549.39 266.55,549.54 258.46,547.48 C227.80,539.69 208.42,509.27 215.91,480.69 C218.75,469.81 223.39,461.61 231.00,454.00 C238.13,446.87 246.26,442.05 255.50,439.47 L 261.50 437.80 L 270.36 422.91 C277.60,410.76 279.10,407.54 278.56,405.39 L 277.90 402.76 L 266.20 403.26 C242.65,404.28 224.26,412.11 207.14,428.44 C191.59,443.25 181.71,464.20 179.52,487.00 C178.75,494.98 180.51,510.21 183.22,518.97 C190.87,543.77 208.74,563.91 233.50,575.63 C249.17,583.05 265.74,585.32 284.00,582.54 ZM 495.50 582.53 C528.73,577.13 554.88,555.66 566.97,523.85 C572.53,509.19 573.41,486.24 569.04,469.50 C562.70,445.19 545.17,424.19 521.50,412.54 C503.81,403.84 486.03,401.23 466.50,404.45 C456.95,406.03 456.44,406.02 455.20,404.30 C454.48,403.31 450.21,396.54 445.70,389.25 C441.19,381.96 431.78,367.00 424.78,356.01 L 412.06 336.02 L 413.95 332.76 C419.46,323.29 420.43,307.82 416.19,297.00 C413.24,289.47 406.25,281.80 398.18,277.26 L 391.50 273.50 L 379.00 273.50 C366.69,273.50 366.40,273.55 360.26,276.88 C330.51,293.02 331.82,334.79 362.53,349.16 C366.35,350.95 371.39,352.41 374.83,352.72 C380.38,353.22 380.79,353.45 383.20,357.37 C384.59,359.64 394.86,376.12 406.01,394.00 C417.16,411.88 429.87,432.46 434.25,439.75 L 442.20 453.01 L 445.85 450.13 C450.95,446.11 460.93,441.25 467.70,439.49 C474.43,437.74 486.73,437.55 494.20,439.09 C514.60,443.29 532.15,461.47 536.59,483.00 C543.40,516.04 515.87,549.05 481.54,548.99 C468.95,548.97 454.63,543.48 445.91,535.32 L 441.29 531.00 L 426.29 531.00 C411.76,531.00 411.21,531.08 408.65,533.45 C403.71,538.03 405.88,543.75 416.98,555.38 C425.23,564.02 431.83,568.90 442.50,574.22 C460.03,582.98 476.68,585.59 495.50,582.53 ZM 284.21 528.00 C294.29,524.20 304.33,513.55 307.16,503.68 C309.16,496.71 308.76,487.28 306.14,479.48 L 303.79 472.46 L 322.54 441.48 C332.85,424.44 346.22,402.17 352.24,392.00 C358.27,381.83 363.60,373.07 364.10,372.55 C365.74,370.82 365.05,370.18 359.75,368.45 C347.92,364.61 333.95,352.80 327.26,341.00 C320.84,329.67 318.36,313.13 321.08,299.80 C322.60,292.37 329.14,279.45 334.44,273.38 C340.07,266.96 350.73,259.63 358.32,256.97 C361.53,255.85 367.72,254.43 372.08,253.81 C385.77,251.87 401.70,256.39 414.73,265.90 C427.49,275.21 438.00,296.65 438.00,313.37 C438.00,319.29 438.25,320.12 440.50,321.59 C442.18,322.69 444.05,323.02 446.25,322.61 C450.48,321.82 465.43,313.38 469.68,309.38 C472.57,306.67 473.00,305.63 473.00,301.32 C473.00,298.60 472.07,292.82 470.93,288.47 C463.98,261.94 444.72,238.71 419.50,226.44 C406.04,219.89 395.50,217.61 378.50,217.55 C357.71,217.48 343.55,221.58 326.06,232.75 C307.25,244.75 291.65,266.59 285.85,289.00 C282.71,301.18 282.68,322.96 285.80,334.88 C289.91,350.55 299.03,366.86 310.33,378.71 C313.54,382.08 314.16,383.30 313.42,384.82 C312.91,385.86 303.54,402.01 292.59,420.71 L 272.68 454.69 L 265.91 455.74 C248.21,458.48 235.75,470.33 233.26,486.79 C230.53,504.82 240.78,522.43 257.33,528.15 C264.63,530.67 277.33,530.60 284.21,528.00 ZM 472.11 377.95 C497.16,367.63 520.01,351.30 545.83,325.29 L 562.16 308.83 L 568.79 315.17 C572.44,318.65 578.34,324.31 581.91,327.75 C588.51,334.13 592.41,335.63 594.81,332.72 C595.66,331.70 618.04,233.96 619.76,223.76 C620.02,222.26 619.94,219.89 619.59,218.51 C619.06,216.38 618.39,216.00 615.17,216.00 C611.23,216.00 589.74,221.37 551.00,232.03 C538.62,235.44 523.61,239.54 517.64,241.14 C504.53,244.65 503.21,245.30 502.35,248.72 C501.75,251.15 502.89,252.53 514.87,263.95 C522.13,270.85 528.05,276.82 528.03,277.21 C527.97,278.63 513.12,295.66 506.39,302.02 C487.48,319.91 473.68,329.70 453.26,339.69 C438.15,347.08 438.86,345.11 446.83,357.50 C459.97,377.93 462.12,381.00 463.37,381.00 C464.11,381.00 468.05,379.63 472.11,377.95 Z" fill="rgb(253,253,253)"/>
</g>
</svg>