<svg xmlns="http://www.w3.org/2000/svg" viewBox="0 0 600 600">
<g transform="translate(0, 75)">
<path d="M 210.51 582.69 L 213.50 584.89 L 178.50 584.86 C159.25,584.84 142.38,584.48 141.00,584.06 C130.53,580.86 120.50,572.42 116.17,563.20 L 113.50 557.50 L 113.23 376.56 C113.21,363.13 113.19,350.67 113.17,339.10 C112.94,198.95 112.93,189.29 117.36,182.57 C118.05,181.51 118.86,180.53 119.79,179.13 C122.15,175.58 125.46,172.37 129.37,169.84 C130.72,168.97 131.59,168.21 132.52,167.54 C138.96,162.96 148.66,162.96 342.15,162.99 C360.01,163.00 379.44,163.00 400.58,163.00 C652.95,163.00 655.86,163.02 662.26,165.00 C673.84,168.58 682.90,177.93 686.41,189.93 C687.84,194.80 688.00,213.75 688.00,374.08 C688.00,548.90 687.96,552.93 686.04,559.15 C683.17,568.44 676.33,576.53 667.56,581.00 L 660.70 584.50 L 591.26 584.77 C553.07,584.92 521.97,584.69 522.16,584.27 C522.35,583.85 526.36,579.79 531.07,575.25 L 539.64 567.00 L 597.87 567.00 C600.10,567.00 602.25,567.00 604.33,567.00 C651.25,567.01 657.82,567.01 661.76,563.79 C662.57,563.12 663.27,562.31 664.20,561.34 C664.91,560.59 665.54,560.07 666.09,559.49 C670.02,555.31 670.02,547.43 670.00,421.55 C670.00,412.36 670.00,402.53 670.00,392.03 L 670.00 233.00 L 423.04 233.00 L 415.77 230.57 C400.99,225.63 392.92,224.53 372.00,224.59 C351.63,224.65 340.69,226.19 326.18,231.05 C320.76,232.86 316.14,232.95 225.75,232.98 L 131.00 233.00 L 131.00 551.69 L 133.33 556.09 C134.61,558.52 137.57,561.85 139.91,563.50 L 144.16 566.50 L 169.00 567.00 L 193.83 567.50 L 200.68 574.00 C204.45,577.58 208.87,581.49 210.51,582.69 ZM 480.58 579.71 C470.51,582.83 450.12,583.76 440.48,581.54 C424.01,577.75 406.73,567.91 395.53,555.93 C391.55,551.67 390.98,550.61 392.13,549.56 C393.88,547.95 411.94,532.89 414.24,531.12 C415.77,529.94 416.57,530.36 421.02,534.64 C434.07,547.21 452.80,552.07 470.47,547.47 C498.73,540.10 514.72,506.92 502.68,480.60 C495.34,464.57 481.97,454.42 464.97,451.98 C452.97,450.26 443.92,451.93 431.64,458.15 C427.32,460.33 423.70,461.98 423.59,461.81 C422.54,460.19 411.84,440.92 406.48,431.00 C402.76,424.12 398.05,415.58 396.02,412.00 C393.99,408.42 388.32,398.12 383.42,389.10 C378.51,380.08 373.36,371.48 371.97,369.98 C370.29,368.17 367.62,366.87 364.00,366.09 C357.01,364.59 347.14,359.07 342.97,354.31 C333.47,343.49 330.88,326.00 336.99,314.01 C339.97,308.18 347.60,300.76 354.12,297.36 C359.00,294.81 360.47,294.55 370.00,294.53 C379.30,294.50 381.14,294.80 386.16,297.15 C393.46,300.57 399.52,306.85 403.40,315.00 C406.17,320.80 406.50,322.47 406.47,330.50 C406.45,338.00 405.99,340.56 403.74,345.89 L 401.03 352.27 L 405.88 360.39 C408.54,364.85 414.23,374.80 418.52,382.50 C422.81,390.20 429.10,401.45 432.50,407.50 L 438.68 418.50 L 452.09 418.16 C478.47,417.50 498.10,424.71 514.87,441.24 C529.87,456.01 537.29,470.89 540.01,491.68 C542.91,513.87 533.22,541.78 516.98,558.02 C506.93,568.07 494.76,575.32 480.58,579.71 ZM 284.68 580.93 C276.06,582.11 274.29,582.11 265.47,580.96 C236.50,577.17 210.91,558.80 198.12,532.63 C183.13,501.95 186.87,468.06 208.20,441.24 C214.99,432.72 227.46,422.80 237.41,418.01 C246.48,413.64 259.98,409.40 262.15,410.23 C263.35,410.69 265.29,416.80 271.63,440.16 C271.98,441.45 270.99,442.05 267.18,442.87 C249.85,446.59 235.92,457.22 228.46,472.43 C218.41,492.93 222.60,515.91 239.41,532.50 C257.51,550.35 282.60,552.72 303.87,538.59 C319.65,528.10 327.00,513.39 327.00,492.32 L 327.00 481.01 L 372.25 481.66 C397.14,482.02 419.18,482.00 421.23,481.62 C423.82,481.13 426.22,479.58 429.03,476.59 C437.55,467.49 451.13,463.39 464.20,465.96 C475.07,468.10 482.12,473.59 487.74,484.29 C490.14,488.84 490.48,490.64 490.49,498.50 C490.50,506.12 490.10,508.35 487.90,513.05 C476.50,537.35 446.91,541.04 428.20,520.49 L 424.12 516.00 L 391.53 516.00 C361.36,516.00 358.90,516.13 358.41,517.75 C356.77,523.21 351.49,535.23 348.71,539.84 C344.32,547.14 332.08,560.13 324.50,565.54 C313.19,573.61 299.46,578.92 284.68,580.93 ZM 260.50 210.70 C265.54,213.56 270.29,213.60 274.75,210.85 C285.44,204.24 281.51,187.05 268.94,185.45 C254.32,183.58 247.68,203.44 260.50,210.70 ZM 156.24 210.30 C161.18,213.50 165.31,213.72 169.76,211.01 C180.25,204.61 178.77,189.72 167.27,185.92 C160.37,183.65 152.98,187.46 150.54,194.56 C148.30,201.07 150.23,206.41 156.24,210.30 ZM 208.61 210.69 C211.55,212.51 213.51,213.01 216.60,212.69 C231.44,211.20 233.44,190.60 219.21,185.90 C214.40,184.32 209.00,186.09 205.09,190.55 C202.55,193.44 202.01,194.91 202.04,198.78 C202.08,204.72 203.69,207.64 208.61,210.69 Z" fill="#3a484f" transform="translate(-100, -150)"/>
<path d="M 650.00 400.00 L 650.00 547.00 L 601.00 547.00 C574.05,547.00 552.00,546.66 552.01,546.25 C552.01,545.84 553.54,541.45 555.40,536.50 C560.86,521.99 562.34,512.71 561.71,497.00 C561.05,480.78 558.41,469.81 551.82,455.94 C545.83,443.36 536.83,431.67 526.72,423.38 C522.20,419.67 518.13,416.33 517.68,415.95 C517.23,415.57 519.89,413.60 523.59,411.56 C533.34,406.20 548.45,394.75 556.40,386.69 C564.04,378.96 564.25,378.96 567.62,386.74 C569.35,390.76 575.58,395.00 580.74,395.69 C586.93,396.52 594.24,392.82 599.93,385.99 C611.14,372.51 629.34,328.15 638.54,291.83 C640.49,284.14 647.00,254.46 647.00,253.26 C647.00,253.12 647.67,253.00 648.50,253.00 C649.83,253.00 650.00,270.00 650.00,400.00 Z" fill="#92bfbd" transform="translate(-100, -150)"/>
<path d="M 287.07 529.47 C280.48,531.75 267.80,531.38 261.03,528.72 C254.38,526.10 245.41,517.51 241.92,510.42 C239.83,506.16 239.50,504.09 239.50,495.00 C239.50,485.52 239.77,483.94 242.30,478.80 C247.15,468.92 258.35,460.70 268.79,459.34 C271.38,459.00 274.24,458.34 275.15,457.88 C276.06,457.41 280.29,450.61 284.56,442.77 C288.82,434.92 294.88,424.00 298.02,418.50 C301.17,413.00 305.39,405.23 307.39,401.24 L 311.03 393.98 L 305.43 387.38 C293.25,373.01 286.36,358.45 283.98,342.00 C275.39,282.68 328.99,233.60 388.87,245.96 C405.84,249.46 419.43,257.39 433.10,271.75 C440.01,279.01 442.65,282.73 446.85,291.12 C454.49,306.37 456.38,315.07 455.70,331.95 C455.40,339.40 454.63,347.36 453.99,349.63 L 452.82 353.76 L 444.66 351.95 C440.17,350.96 433.34,349.37 429.47,348.43 L 422.45 346.72 L 422.45 333.11 C422.45,320.11 422.30,319.14 419.22,311.43 C404.86,275.51 359.55,266.45 332.00,294.00 C316.01,309.99 312.66,332.55 323.12,353.93 C327.59,363.07 337.95,372.94 348.22,377.83 C352.47,379.85 355.96,381.85 355.97,382.27 C355.99,382.69 354.94,384.72 353.66,386.77 C351.23,390.64 337.86,414.69 327.97,433.00 C324.85,438.77 319.23,449.11 315.48,455.96 C307.78,470.03 306.70,474.74 309.38,482.60 C311.48,488.76 311.38,501.02 309.17,507.19 C305.63,517.11 296.67,526.15 287.07,529.47 ZM 489.43 407.46 C486.70,408.61 482.39,408.97 472.63,408.88 C465.41,408.82 458.77,408.57 457.88,408.34 C456.98,408.10 453.69,402.98 450.57,396.96 C444.88,386.02 444.88,386.01 447.19,385.11 C460.23,380.03 464.54,378.15 471.00,374.68 C487.71,365.71 502.68,354.27 519.01,338.00 C525.91,331.12 533.33,322.88 535.50,319.67 L 539.44 313.84 L 534.47 309.40 C531.74,306.95 525.79,302.00 521.25,298.39 C516.71,294.79 513.00,291.67 513.00,291.47 C513.00,290.76 536.72,283.73 553.48,279.46 C562.87,277.08 581.79,272.83 595.52,270.02 C609.26,267.21 621.69,264.67 623.14,264.36 L 625.78 263.79 L 624.34 270.15 C617.81,298.91 603.65,338.98 591.25,363.83 C590.97,364.39 590.70,364.92 590.45,365.42 C587.69,370.98 586.36,373.64 585.08,373.63 C583.77,373.61 582.50,370.83 579.81,365.50 C575.02,356.01 569.95,348.00 568.75,348.00 C568.14,348.00 561.77,353.75 554.57,360.79 C540.81,374.25 530.54,382.98 519.91,390.26 C512.84,395.09 495.19,405.06 489.43,407.46 Z" fill="#e43648" transform="translate(-100, -150)"/>
</g>
</svg>
